Coordinates
version=1
nRows=38
nColumns=12
inDegrees=yes

Units are S.I. units (second, meters, Newtons, ...)
Angles are in degrees

endheader
time	SC_y	SC_z	SC_x	AC_y	AC_z	AC_x	GH_y	GH_z	GH_yy	EL_x	PS_y
       0.0              -21.12          15.53          27.63          43.83          -1.15          3.865         -148.0          16.08          22.31          8.026          98.18
  0.001386              -21.13          15.53          27.64          43.83          -1.15          3.865         -148.0          16.09          22.33          8.032          98.19
  0.002771              -21.13          15.53          27.64          43.83         -1.149          3.866         -147.9           16.1          22.36          8.038           98.2
  0.004157              -21.14          15.53          27.65          43.83         -1.148          3.867         -147.9          16.11          22.38          8.045           98.2
  0.005543              -21.14          15.53          27.66          43.83         -1.147          3.868         -147.8          16.12          22.41          8.051          98.21
  0.006928              -21.15          15.53          27.67          43.83         -1.145          3.868         -147.8          16.13          22.44          8.059          98.22
  0.008314              -21.16          15.53          27.68          43.83         -1.144          3.869         -147.7          16.15          22.47          8.066          98.23
  0.009699              -21.16          15.53          27.69          43.83         -1.143           3.87         -147.6          16.16           22.5          8.075          98.24
   0.01109              -21.17          15.53           27.7          43.83         -1.142          3.871         -147.6          16.17          22.54          8.084          98.25
   0.01247              -21.18          15.53          27.72          43.84          -1.14          3.872         -147.5          16.19          22.57          8.093          98.26
   0.01386              -21.19          15.53          27.73          43.84         -1.138          3.873         -147.4           16.2          22.61          8.104          98.27
   0.01524               -21.2          15.53          27.74          43.84         -1.137          3.874         -147.3          16.22          22.66          8.115          98.28
   0.01663              -21.21          15.53          27.76          43.84         -1.135          3.876         -147.2          16.24          22.71          8.127           98.3
   0.01801              -21.22          15.53          27.78          43.84         -1.133          3.877         -147.1          16.26          22.76           8.14          98.31
    0.0194              -21.23          15.53           27.8          43.84         -1.131          3.879         -147.0          16.28          22.81          8.153          98.33
   0.02078              -21.24          15.53          27.82          43.84         -1.128           3.88         -146.9           16.3          22.87          8.169          98.34
   0.02217              -21.26          15.53          27.84          43.85         -1.126          3.882         -146.8          16.33          22.94          8.185          98.36
   0.02356              -21.27          15.53          27.86          43.85         -1.123          3.884         -146.6          16.36          23.01          8.203          98.38
   0.02494              -21.29          15.53          27.89          43.85          -1.12          3.886         -146.5          16.39          23.08          8.223           98.4
   0.02633              -21.31          15.53          27.92          43.85         -1.117          3.889         -146.3          16.42          23.17          8.244          98.43
   0.02771              -21.33          15.52          27.95          43.85         -1.113          3.891         -146.1          16.46          23.26          8.267          98.45
    0.0291              -21.35          15.52          27.98          43.86         -1.109          3.894         -145.9           16.5          23.36          8.293          98.48
   0.03048              -21.38          15.52          28.02          43.86         -1.105          3.897         -145.7          16.54          23.48          8.322          98.51
   0.03187               -21.4          15.52          28.06          43.86           -1.1          3.901         -145.4          16.59           23.6          8.354          98.55
   0.03326              -21.43          15.52          28.11          43.87         -1.094          3.904         -145.2          16.64          23.74          8.389          98.59
   0.03464              -21.47          15.52          28.16          43.87         -1.088          3.909         -144.8           16.7           23.9          8.428          98.63
   0.03603              -21.51          15.52          28.22          43.88         -1.082          3.913         -144.5          16.77          24.07          8.472          98.68
   0.03741              -21.55          15.52          28.28          43.88         -1.074          3.919         -144.1          16.85          24.27          8.522          98.73
    0.0388               -21.6          15.51          28.36          43.89         -1.065          3.925         -143.7          16.93          24.49          8.578          98.79
   0.04018              -21.65          15.51          28.44          43.89         -1.056          3.932         -143.2          17.03          24.74          8.641          98.86
   0.04157              -21.72          15.51          28.54           43.9         -1.044           3.94         -142.6          17.14          25.03          8.714          98.94
   0.04295              -21.79          15.51          28.65          43.91         -1.031          3.949         -141.9          17.27          25.36          8.797          99.04
   0.04434              -21.87           15.5          28.77          43.92         -1.017          3.959         -141.2          17.42          25.74          8.893          99.14
   0.04573              -21.97           15.5          28.92          43.93        -0.9994          3.972         -140.3          17.59          26.18          9.004          99.27
   0.04711              -22.08          15.49           29.1          43.95        -0.9792          3.986         -139.3          17.79          26.69          9.135          99.41
    0.0485              -22.21          15.49           29.3          43.97        -0.9555          4.003         -138.1          18.03           27.3          9.289          99.58
   0.04988              -22.37          15.48          29.54          43.99        -0.9272          4.023         -136.6          18.31          28.03          9.472          99.78
   0.05127              -22.56          15.47          29.83          44.01        -0.8934          4.047         -134.9          18.65          28.89          9.691          100.0
